<svg xmlns="http://www.w3.org/2000/svg" xmlns:xlink="http://www.w3.org/1999/xlink" xmlns:serif="http://www.serif.com/" version="1.1" xml:space="preserve" style="fill-rule:evenodd;clip-rule:evenodd;stroke-linejoin:round;stroke-miterlimit:2;" viewBox="430.91 292.01 77.71 13.93"><g transform="matrix(1,0,0,1,430.638,292.008)"><g transform="matrix(18,0,0,18,0,13.608)"><path d="M0.447,-0.524c-0.015,-0.019 -0.034,-0.033 -0.057,-0.044c-0.024,-0.011 -0.047,-0.017 -0.069,-0.017c-0.011,0 -0.023,0.001 -0.034,0.003c-0.012,0.002 -0.023,0.006 -0.032,0.012c-0.009,0.005 -0.017,0.013 -0.023,0.022c-0.007,0.009 -0.01,0.02 -0.01,0.034c0,0.012 0.003,0.022 0.008,0.03c0.005,0.008 0.012,0.015 0.021,0.021c0.01,0.006 0.022,0.011 0.035,0.016c0.013,0.005 0.028,0.011 0.045,0.016c0.024,0.008 0.049,0.017 0.075,0.026c0.026,0.01 0.05,0.023 0.071,0.039c0.021,0.016 0.039,0.036 0.053,0.059c0.014,0.024 0.021,0.054 0.021,0.089c0,0.041 -0.008,0.076 -0.023,0.105c-0.015,0.03 -0.035,0.055 -0.06,0.074c-0.025,0.019 -0.054,0.034 -0.087,0.043c-0.033,0.009 -0.066,0.014 -0.101,0.014c-0.051,0 -0.1,-0.009 -0.147,-0.027c-0.047,-0.017 -0.087,-0.042 -0.118,-0.075l0.112,-0.114c0.017,0.021 0.04,0.039 0.068,0.053c0.029,0.015 0.057,0.022 0.085,0.022c0.013,0 0.025,-0.001 0.037,-0.004c0.012,-0.003 0.022,-0.007 0.032,-0.013c0.009,-0.006 0.016,-0.014 0.021,-0.024c0.005,-0.01 0.008,-0.022 0.008,-0.036c0,-0.013 -0.003,-0.025 -0.01,-0.034c-0.007,-0.009 -0.016,-0.018 -0.028,-0.026c-0.013,-0.007 -0.028,-0.014 -0.046,-0.021c-0.019,-0.006 -0.04,-0.013 -0.063,-0.02c-0.023,-0.007 -0.045,-0.016 -0.066,-0.026c-0.022,-0.01 -0.041,-0.023 -0.058,-0.038c-0.017,-0.016 -0.031,-0.035 -0.041,-0.057c-0.011,-0.023 -0.016,-0.05 -0.016,-0.082c0,-0.039 0.008,-0.073 0.024,-0.101c0.016,-0.028 0.037,-0.051 0.063,-0.069c0.026,-0.018 0.055,-0.031 0.088,-0.04c0.033,-0.008 0.066,-0.012 0.099,-0.012c0.04,0 0.081,0.007 0.123,0.022c0.041,0.015 0.078,0.036 0.109,0.065l-0.109,0.115Z" style="fill-rule:nonzero;"/></g><g transform="matrix(18,0,0,18,10.188,13.608)"><path d="M0.452,0l-0.153,-0.281l-0.058,0l0,0.281l-0.168,0l0,-0.708l0.27,0c0.034,0 0.067,0.003 0.099,0.01c0.033,0.007 0.062,0.019 0.087,0.036c0.026,0.017 0.047,0.039 0.062,0.066c0.015,0.027 0.023,0.061 0.023,0.102c0,0.048 -0.013,0.088 -0.039,0.121c-0.026,0.033 -0.062,0.056 -0.108,0.07l0.185,0.303l-0.2,0Zm-0.007,-0.491c0,-0.017 -0.003,-0.03 -0.01,-0.041c-0.007,-0.01 -0.016,-0.018 -0.027,-0.024c-0.011,-0.005 -0.024,-0.009 -0.037,-0.011c-0.014,-0.002 -0.027,-0.003 -0.04,-0.003l-0.091,0l0,0.165l0.081,0c0.014,0 0.028,-0.001 0.043,-0.004c0.015,-0.002 0.028,-0.006 0.04,-0.012c0.012,-0.006 0.022,-0.015 0.03,-0.026c0.007,-0.011 0.011,-0.026 0.011,-0.044Z" style="fill-rule:nonzero;"/></g><g transform="matrix(18,0,0,18,21.672,13.608)"><path d="M0.414,0c-0.056,0 -0.107,-0.008 -0.154,-0.024c-0.047,-0.016 -0.087,-0.04 -0.119,-0.071c-0.034,-0.031 -0.059,-0.069 -0.078,-0.113c-0.018,-0.045 -0.027,-0.097 -0.027,-0.155c0,-0.054 0.01,-0.103 0.029,-0.148c0.019,-0.045 0.046,-0.083 0.08,-0.115c0.035,-0.032 0.075,-0.057 0.123,-0.075c0.046,-0.017 0.097,-0.026 0.152,-0.026c0.055,0 0.105,0.009 0.152,0.026c0.047,0.018 0.087,0.043 0.121,0.074c0.034,0.032 0.06,0.07 0.079,0.115c0.02,0.044 0.029,0.093 0.029,0.146c0,0.027 -0.003,0.053 -0.009,0.077c-0.006,0.023 -0.014,0.045 -0.024,0.064c-0.01,0.019 -0.021,0.036 -0.034,0.051c-0.013,0.015 -0.025,0.028 -0.038,0.038l0,0.003l0.149,-0.003l0,0.136l-0.431,0Zm0.206,-0.361c0,-0.031 -0.005,-0.059 -0.014,-0.085c-0.01,-0.026 -0.024,-0.048 -0.041,-0.067c-0.018,-0.019 -0.039,-0.033 -0.064,-0.043c-0.025,-0.011 -0.052,-0.016 -0.081,-0.016c-0.029,0 -0.055,0.005 -0.079,0.016c-0.025,0.01 -0.046,0.024 -0.064,0.043c-0.018,0.019 -0.032,0.041 -0.042,0.067c-0.01,0.026 -0.015,0.054 -0.015,0.085c0,0.032 0.005,0.061 0.015,0.087c0.009,0.027 0.023,0.049 0.041,0.068c0.017,0.019 0.038,0.034 0.063,0.044c0.024,0.011 0.051,0.016 0.08,0.016c0.029,0 0.055,-0.005 0.08,-0.016c0.025,-0.01 0.046,-0.025 0.064,-0.044c0.018,-0.019 0.032,-0.041 0.042,-0.068c0.01,-0.026 0.015,-0.055 0.015,-0.087Z" style="fill-rule:nonzero;"/></g><g transform="matrix(18,0,0,18,36.648,13.608)"><path d="M0.184,-0.048c0,0.014 -0.005,0.027 -0.015,0.038c-0.01,0.011 -0.023,0.016 -0.039,0.016c-0.016,0 -0.029,-0.005 -0.039,-0.017c-0.01,-0.01 -0.015,-0.023 -0.015,-0.037c0,-0.014 0.005,-0.027 0.015,-0.038c0.01,-0.011 0.023,-0.016 0.039,-0.016c0.016,0 0.029,0.005 0.039,0.016c0.01,0.011 0.015,0.024 0.015,0.038Z" style="fill-rule:nonzero;"/></g><g transform="matrix(18,0,0,18,40.122,13.608)"><path d="M0.157,-0.388c0.013,-0.027 0.034,-0.049 0.062,-0.067c0.027,-0.016 0.058,-0.025 0.092,-0.025c0.013,0 0.026,0.001 0.04,0.004c0.013,0.003 0.027,0.008 0.04,0.016c0.013,0.007 0.025,0.017 0.036,0.03c0.011,0.013 0.02,0.029 0.028,0.049c0.016,-0.032 0.038,-0.056 0.066,-0.073c0.027,-0.017 0.06,-0.026 0.098,-0.026c0.059,0 0.104,0.018 0.134,0.053c0.029,0.035 0.044,0.082 0.044,0.14l0,0.287l-0.068,0l0,-0.259c0,-0.049 -0.009,-0.089 -0.027,-0.119c-0.019,-0.03 -0.05,-0.045 -0.094,-0.045c-0.025,0 -0.045,0.005 -0.062,0.015c-0.017,0.01 -0.031,0.023 -0.041,0.04c-0.011,0.016 -0.018,0.034 -0.023,0.055c-0.005,0.021 -0.007,0.042 -0.007,0.064l0,0.249l-0.068,0l0,-0.273c0,-0.023 -0.002,-0.043 -0.005,-0.062c-0.003,-0.019 -0.009,-0.034 -0.017,-0.047c-0.009,-0.013 -0.02,-0.023 -0.035,-0.03c-0.015,-0.007 -0.033,-0.011 -0.056,-0.011c-0.016,0 -0.032,0.004 -0.048,0.011c-0.017,0.007 -0.031,0.019 -0.044,0.034c-0.013,0.015 -0.024,0.033 -0.032,0.056c-0.008,0.023 -0.012,0.051 -0.012,0.082l0,0.24l-0.068,0l0,-0.365c0,-0.013 0,-0.029 -0.001,-0.049c-0.001,-0.02 -0.002,-0.038 -0.003,-0.054l0.065,0c0.001,0.013 0.002,0.027 0.003,0.042c0.001,0.015 0.001,0.028 0.001,0.038l0.002,0Z" style="fill-rule:nonzero;"/></g><g transform="matrix(18,0,0,18,54.81,13.608)"><path d="M0.555,-0.234c0,0.035 -0.006,0.068 -0.019,0.098c-0.012,0.03 -0.029,0.056 -0.051,0.078c-0.022,0.022 -0.048,0.039 -0.079,0.052c-0.031,0.012 -0.064,0.018 -0.101,0.018c-0.036,0 -0.069,-0.006 -0.1,-0.018c-0.031,-0.013 -0.057,-0.03 -0.079,-0.052c-0.022,-0.022 -0.039,-0.048 -0.052,-0.078c-0.012,-0.03 -0.018,-0.063 -0.018,-0.098c0,-0.035 0.006,-0.068 0.018,-0.098c0.013,-0.03 0.03,-0.056 0.052,-0.078c0.022,-0.022 0.048,-0.039 0.079,-0.051c0.031,-0.013 0.064,-0.019 0.1,-0.019c0.037,0 0.07,0.006 0.101,0.019c0.031,0.012 0.057,0.029 0.079,0.051c0.022,0.022 0.039,0.048 0.051,0.078c0.013,0.03 0.019,0.063 0.019,0.098Zm-0.072,0c0,-0.026 -0.004,-0.051 -0.013,-0.073c-0.008,-0.024 -0.02,-0.044 -0.035,-0.061c-0.015,-0.017 -0.034,-0.03 -0.056,-0.04c-0.022,-0.01 -0.047,-0.015 -0.074,-0.015c-0.027,0 -0.052,0.005 -0.074,0.015c-0.021,0.01 -0.04,0.023 -0.055,0.04c-0.015,0.017 -0.027,0.037 -0.036,0.061c-0.008,0.022 -0.012,0.047 -0.012,0.073c0,0.026 0.004,0.05 0.012,0.073c0.009,0.023 0.021,0.043 0.036,0.06c0.015,0.017 0.034,0.031 0.055,0.04c0.022,0.01 0.047,0.015 0.074,0.015c0.027,0 0.052,-0.005 0.074,-0.015c0.022,-0.009 0.041,-0.023 0.056,-0.04c0.015,-0.017 0.027,-0.037 0.035,-0.06c0.009,-0.023 0.013,-0.047 0.013,-0.073Z" style="fill-rule:nonzero;"/></g><g transform="matrix(18,0,0,18,64.602,13.608)"><path d="M0.16,-0.079l0,0.079l-0.068,0l0,-0.756l0.068,0l0,0.369l0.002,0c0.02,-0.031 0.046,-0.054 0.078,-0.07c0.032,-0.015 0.065,-0.023 0.099,-0.023c0.037,0 0.07,0.006 0.1,0.019c0.029,0.013 0.055,0.03 0.076,0.052c0.021,0.022 0.037,0.048 0.049,0.078c0.011,0.03 0.017,0.062 0.017,0.097c0,0.035 -0.006,0.067 -0.017,0.097c-0.012,0.03 -0.028,0.056 -0.049,0.078c-0.021,0.022 -0.047,0.039 -0.076,0.052c-0.03,0.013 -0.063,0.019 -0.1,0.019c-0.034,0 -0.067,-0.008 -0.099,-0.023c-0.032,-0.015 -0.058,-0.038 -0.078,-0.068l-0.002,0Zm0.349,-0.155c0,-0.026 -0.004,-0.051 -0.012,-0.073c-0.008,-0.024 -0.019,-0.044 -0.034,-0.061c-0.015,-0.017 -0.034,-0.03 -0.056,-0.04c-0.022,-0.01 -0.047,-0.015 -0.075,-0.015c-0.026,0 -0.05,0.005 -0.072,0.014c-0.022,0.01 -0.041,0.023 -0.057,0.04c-0.016,0.018 -0.028,0.037 -0.037,0.061c-0.009,0.022 -0.014,0.047 -0.014,0.074c0,0.027 0.005,0.051 0.014,0.074c0.009,0.023 0.021,0.043 0.037,0.06c0.016,0.017 0.035,0.03 0.057,0.039c0.022,0.01 0.046,0.015 0.072,0.015c0.028,0 0.053,-0.005 0.075,-0.015c0.022,-0.009 0.041,-0.023 0.056,-0.04c0.015,-0.017 0.026,-0.037 0.034,-0.06c0.008,-0.023 0.012,-0.047 0.012,-0.073Z" style="fill-rule:nonzero;"/></g><g transform="matrix(18,0,0,18,74.862,13.608)"><path d="M0.159,0l-0.068,0l0,-0.468l0.068,0l0,0.468Zm0.014,-0.648c0,0.014 -0.005,0.025 -0.015,0.034c-0.01,0.01 -0.021,0.014 -0.033,0.014c-0.012,0 -0.023,-0.004 -0.033,-0.014c-0.01,-0.009 -0.015,-0.02 -0.015,-0.034c0,-0.014 0.005,-0.026 0.015,-0.034c0.01,-0.009 0.021,-0.014 0.033,-0.014c0.012,0 0.023,0.005 0.033,0.014c0.01,0.008 0.015,0.02 0.015,0.034Z" style="fill-rule:nonzero;"/></g></g></svg>