<?xml version="1.0" encoding="UTF-8" standalone="no"?>
<!DOCTYPE svg PUBLIC "-//W3C//DTD SVG 1.1//EN" "http://www.w3.org/Graphics/SVG/1.1/DTD/svg11.dtd">
<svg width="100%" height="100%" viewBox="0 0 722 197" version="1.1" xmlns="http://www.w3.org/2000/svg" xmlns:xlink="http://www.w3.org/1999/xlink" xml:space="preserve" xmlns:serif="http://www.serif.com/" style="fill-rule:evenodd;clip-rule:evenodd;stroke-linejoin:round;stroke-miterlimit:2;">
    <g transform="matrix(1,0,0,1,-237.74,-199.288)">
        <g transform="matrix(1,0,0,1,218.548,393.689)">
            <g>
                <path d="M141.755,-130.516C125.854,-130.516 111.87,-122.286 103.646,-109.401C95.146,-122.286 81.432,-130.516 66.901,-130.516C54.292,-130.516 42.776,-123.932 34.823,-114.062L34.823,-128.047L19.193,-128.047L19.193,0L34.823,0L34.823,-83.078C34.823,-101.177 48.255,-114.609 65.255,-114.609C82.255,-114.609 95.693,-101.177 95.693,-83.078L95.693,0L111.323,0L111.323,-83.078C111.323,-101.177 125.031,-114.609 141.755,-114.609C158.755,-114.609 172.193,-101.177 172.193,-83.078L172.193,0L187.818,0L187.818,-83.078C187.818,-109.677 167.531,-130.516 141.755,-130.516Z" style="fill-rule:nonzero;"/>
            </g>
        </g>
        <g transform="matrix(1,0,0,1,410.206,393.689)">
            <g>
                <path d="M145.594,-65.807C144.224,-102.271 115.432,-130.516 79.24,-130.516C42.224,-130.516 12.615,-100.901 12.615,-63.885C12.615,-27.146 42.224,2.469 79.24,2.469C102.823,2.469 123.385,-9.599 135.177,-29.062L120.917,-35.094C111.594,-21.385 95.969,-12.885 79.24,-12.885C51.547,-12.885 28.516,-34.823 27.969,-62.24L145.323,-62.24L145.594,-65.807ZM79.24,-114.885C102.823,-114.885 122.839,-98.708 128.047,-76.5L29.615,-76.5C35.37,-98.708 55.385,-114.885 79.24,-114.885Z" style="fill-rule:nonzero;"/>
            </g>
        </g>
        <g transform="matrix(1,0,0,1,554.704,393.689)">
            <g>
                <path d="M69.37,-130.516C55.661,-130.516 43.323,-124.484 34.823,-115.161L34.823,-128.047L19.193,-128.047L19.193,0L34.823,0L34.823,-83.078C34.823,-101.177 49.354,-115.708 67.724,-115.708C85.823,-115.708 100.354,-101.177 100.354,-83.078L100.354,0L115.984,0L115.984,-83.901C115.984,-109.677 95.146,-130.516 69.37,-130.516Z" style="fill-rule:nonzero;"/>
            </g>
        </g>
        <g transform="matrix(1,0,0,1,674.525,393.689)">
            <g>
                <path d="M129.146,-105.286C117.625,-120.646 99.531,-130.516 77.323,-130.516C42.224,-130.516 12.615,-100.901 12.615,-63.885C12.615,-27.146 42.224,2.469 77.323,2.469C99.531,2.469 117.625,-7.401 129.146,-22.755L129.146,0L144.771,0L144.771,-191.932L129.146,-191.932L129.146,-105.286ZM79.24,-13.161C51,-13.161 27.969,-35.646 27.969,-63.885C27.969,-92.13 51,-114.885 79.24,-114.885C107.208,-114.885 129.964,-92.13 129.964,-63.885C129.964,-35.646 107.208,-13.161 79.24,-13.161Z" style="fill-rule:nonzero;"/>
            </g>
        </g>
        <g transform="matrix(1,0,0,1,824.781,393.689)">
            <g>
                <path d="M26.87,-170.547C33.453,-170.547 38.938,-175.755 38.938,-182.339C38.938,-189.193 33.453,-194.401 26.87,-194.401C20.563,-194.401 14.807,-189.193 14.807,-182.339C14.807,-175.755 20.563,-170.547 26.87,-170.547ZM34.823,0L34.823,-128.047L19.193,-128.047L19.193,0L34.823,0Z" style="fill-rule:nonzero;"/>
            </g>
        </g>
        <g transform="matrix(1,0,0,1,865.087,393.689)">
            <g>
                <path d="M54.839,2.469C76.771,2.469 94.323,-12.339 94.323,-33.177C94.323,-56.208 75.677,-64.708 58.677,-71.562C43.047,-78.146 32.901,-82.255 32.901,-95.693C32.901,-109.401 43.047,-115.708 54.563,-115.708C63.339,-115.708 71.292,-111.594 75.13,-103.646L88.839,-111.047C83.63,-122.016 70.469,-130.516 54.839,-130.516C35.917,-130.516 17,-118.448 17,-95.146C17,-74.307 31.531,-64.984 52.917,-57.031C68.271,-50.724 78.693,-45.792 78.693,-33.453C78.693,-20.562 68.547,-12.062 53.74,-12.062C41.401,-12.062 30.984,-18.099 26.323,-29.062L10.969,-24.401C16.177,-9.323 34.823,2.469 54.839,2.469Z" style="fill-rule:nonzero;"/>
            </g>
        </g>
    </g>
</svg>
